<svg xmlns="http://www.w3.org/2000/svg" viewBox="0 0 80 80">
    <path
        fill="#f5c276"
        d="M12.728,73.5c-1.228,0-2.228-1.018-2.228-2.27V6.769c0-1.251,1-2.269,2.228-2.269h20.965 C33.563,5.01,33.5,5.505,33.5,6c0,3.584,2.916,6.5,6.5,6.5s6.5-2.916,6.5-6.5c0-0.495-0.063-0.99-0.192-1.5h20.965 C68.5,4.5,69.5,5.518,69.5,6.769V71.23c0,1.251-1,2.27-2.228,2.27H12.728z"
    ></path>
    <path
        fill="#c29653"
        d="M67.273,5C68.225,5,69,5.794,69,6.769v64.462C69,72.206,68.225,73,67.273,73H12.727 C11.775,73,11,72.206,11,71.231V6.769C11,5.794,11.775,5,12.727,5h20.352C33.026,5.335,33,5.667,33,6c0,3.86,3.14,7,7,7s7-3.14,7-7 c0-0.333-0.026-0.665-0.079-1H67.273 M67.273,4h-21.64C45.856,4.628,46,5.295,46,6c0,3.314-2.686,6-6,6s-6-2.686-6-6 c0-0.705,0.144-1.372,0.367-2h-21.64C11.221,4,10,5.24,10,6.769v64.462C10,72.76,11.221,74,12.727,74h54.545 C68.779,74,70,72.76,70,71.231V6.769C70,5.24,68.779,4,67.273,4L67.273,4z"
    ></path>
    <path
        fill="#66798f"
        d="M40,1c2.206,0,4,1.794,4,4s-1.794,4-4,4s-4-1.794-4-4S37.794,1,40,1 M40,0c-2.761,0-5,2.239-5,5 s2.239,5,5,5s5-2.239,5-5S42.761,0,40,0L40,0z"
    ></path>
    <path
        fill="#66798f"
        d="M44.38,4c0.073,0.323,0.12,0.655,0.12,1c0,2.485-2.015,4.5-4.5,4.5S35.5,7.485,35.5,5	c0-0.345,0.047-0.677,0.12-1H26v8c0,2.209,1.791,4,4,4h20c2.209,0,4-1.791,4-4V4H44.38z"
    ></path>
    <path fill="#f2faff" d="M30.5 30.5H77.5V77.5H30.5z"></path>
    <path
        fill="#788b9c"
        d="M77,31v46H31V31H77 M78,30H30v48h48V30L78,30z"
    ></path>
    <path
        fill="#f2faff"
        d="M68 30H70V78H68zM58 30H60V78H58zM48 30H50V78H48zM38 30H40V78H38z"
    ></path>
    <path
        fill="#f2faff"
        d="M53 45H55V93H53z"
        transform="rotate(90 54 69)"
    ></path>
    <path
        fill="#f2faff"
        d="M53 35H55V83H53z"
        transform="rotate(90 54 59)"
    ></path>
    <path
        fill="#f2faff"
        d="M53 25H55V73H53z"
        transform="rotate(90 54 49)"
    ></path>
    <path
        fill="#f2faff"
        d="M53 15H55V63H53z"
        transform="rotate(90 54 39)"
    ></path>
</svg>